Coordinates
version=1
nRows=15
nColumns=27
inDegrees=yes

Units are S.I. units (second, meters, Newtons, ...)
If the header above contains a line with 'inDegrees', this indicates whether rotational values are in degrees (yes) or radians (no).

endheader
time	pelvis_rotation	pelvis_tilt	pelvis_list	pelvis_tx	pelvis_ty	pelvis_tz	hip_flexion_r	hip_adduction_r	hip_rotation_r	knee_angle_r	knee_rotation_r	knee_adduction_r	knee_angle_r_beta	ankle_angle_r	subtalar_angle_r	mtp_angle_r	hip_flexion_l	hip_adduction_l	hip_rotation_l	knee_angle_l	knee_rotation_l	knee_adduction_l	knee_angle_l_beta	ankle_angle_l	subtalar_angle_l	mtp_angle_l
      4.38000000	      5.21434347	    -28.79799633	      3.49508098	      0.00848265	      0.41201574	     -1.11617155	    135.25401837	    -47.74479830	     25.08059153	    112.64838077	     -9.92239870	      9.89371925	      1.96608514	     20.71693550	     12.42547028	      0.00000000	    130.26053561	    -44.81264832	     17.07170664	    105.94854014	     -9.92226035	     -9.91087235	      1.84915086	     14.70197673	     29.05558582	      0.00000000
      4.38500000	      5.24760423	    -28.74741378	      3.60267844	      0.00880695	      0.41133576	     -1.11625030	    135.39911946	    -47.64316673	     25.33021617	    112.75138007	     -9.92271071	      9.89378276	      1.96788282	     20.76375047	     12.33533050	      0.00000000	    130.21823845	    -44.87809223	     17.02425393	    106.03813586	     -9.92264648	     -9.91105606	      1.85071460	     14.78796640	     29.05951795	      0.00000000
      4.39000000	      5.28451075	    -28.72308263	      3.61813792	      0.00903139	      0.41072163	     -1.11635296	    135.45655403	    -47.60369669	     25.46011039	    112.82517643	     -9.92306888	      9.89379421	      1.96917081	     20.78344312	     12.23468950	      0.00000000	    130.29866118	    -44.85486565	     17.08583875	    106.12975184	     -9.92289345	     -9.91142059	      1.85231360	     14.78877924	     29.06383861	      0.00000000
      4.39500000	      5.34233862	    -28.71066566	      3.63566165	      0.00926982	      0.41015370	     -1.11646899	    135.53336400	    -47.59050869	     25.59291818	    112.89416667	     -9.92338470	      9.89376126	      1.97037491	     20.79953361	     12.10258054	      0.00000000	    130.37492789	    -44.81176256	     17.12985227	    106.21912311	     -9.92311637	     -9.91157015	      1.85387343	     14.83320782	     29.04959890	      0.00000000
      4.40000000	      5.40594966	    -28.71311334	      3.42181972	      0.00946160	      0.40966954	     -1.11661207	    135.39058820	    -47.78549051	     25.44844378	    112.92803552	     -9.92370645	      9.89378029	      1.97096604	     20.82334831	     12.05146324	      0.00000000	    130.65784487	    -44.56141780	     17.44437776	    106.31921001	     -9.92316156	     -9.91164005	      1.85562027	     14.81990885	     29.02536526	      0.00000000
      4.40500000	      5.43030445	    -28.70154538	      3.61003460	      0.00970535	      0.40917641	     -1.11669556	    135.58990859	    -47.58270105	     25.75895032	    113.00820345	     -9.92394633	      9.89352409	      1.97236523	     20.84480945	     11.92536933	      0.00000000	    130.56761696	    -44.69295851	     17.28416800	    106.38051808	     -9.92350778	     -9.91192299	      1.85669030	     14.84976607	     29.05752199	      0.00000000
      4.41000000	      5.51175325	    -28.68509542	      3.69197946	      0.00994911	      0.40869968	     -1.11685127	    135.72920560	    -47.55381633	     25.98736336	    113.06593328	     -9.92411253	      9.89339949	      1.97337281	     20.86809455	     11.91008517	      0.00000000	    130.55601013	    -44.66238947	     17.22930118	    106.46135674	     -9.92368636	     -9.91181124	      1.85810120	     14.86572791	     29.00483403	      0.00000000
      4.41500000	      5.49815606	    -28.71322693	      3.49995469	      0.01009946	      0.40840921	     -1.11697039	    135.54404799	    -47.63038014	     25.77647009	    113.08930699	     -9.92424425	      9.89323991	      1.97378076	     20.88237755	     11.71901349	      0.00000000	    130.82300960	    -44.51513329	     17.52122635	    106.54066141	     -9.92379892	     -9.91207569	      1.85948533	     14.87107972	     29.01698942	      0.00000000
      4.42000000	      5.63112365	    -28.67987805	      3.41476084	      0.01032574	      0.40803922	     -1.11716064	    135.50041505	    -47.81005999	     25.82924307	    113.11888422	     -9.92445209	      9.89285337	      1.97429698	     20.92427997	     11.78957239	      0.00000000	    130.89857118	    -44.27697871	     17.63273413	    106.63021814	     -9.92382095	     -9.91192756	      1.86104839	     14.94736383	     28.98546219	      0.00000000
      4.42500000	      5.62677235	    -28.75911982	      3.74565677	      0.01044900	      0.40780148	     -1.11722213	    135.88217835	    -47.43945211	     26.23492257	    113.18854249	     -9.92447346	      9.89276483	      1.97551274	     20.84963218	     11.52509716	      0.00000000	    130.71699644	    -44.53589116	     17.27126511	    106.64162125	     -9.92402291	     -9.91203067	      1.86124741	     14.95074546	     28.94123065	      0.00000000
      4.43000000	      5.70213318	    -28.78908893	      3.74514770	      0.01059845	      0.40760534	     -1.11736056	    135.92798885	    -47.46617813	     26.30368012	    113.21339364	     -9.92458108	      9.89258810	      1.97594648	     20.84806712	     11.42208926	      0.00000000	    130.77827464	    -44.43534719	     17.28197861	    106.69131033	     -9.92404841	     -9.91201869	      1.86211465	     14.91934294	     28.89918699	      0.00000000
      4.43500000	      5.78804854	    -28.84246082	      3.78244671	      0.01070142	      0.40742117	     -1.11751440	    136.03059641	    -47.47678432	     26.43277837	    113.23195112	     -9.92459234	      9.89229917	      1.97627037	     20.85708401	     11.41828094	      0.00000000	    130.80735008	    -44.33159561	     17.24517044	    106.73715661	     -9.92396438	     -9.91186651	      1.86291482	     14.93390898	     28.83215059	      0.00000000
      4.44000000	      5.74435887	    -28.85536976	      3.62475305	      0.01081189	      0.40735336	     -1.11767433	    135.84723956	    -47.51243021	     26.22192996	    113.22823825	     -9.92459682	      9.89165058	      1.97620556	     20.82787056	     11.22352574	      0.00000000	    130.98690325	    -44.24207481	     17.46443557	    106.79507980	     -9.92396309	     -9.91179748	      1.86392577	     14.96923777	     28.80234986	      0.00000000
      4.44500000	      5.80078945	    -28.92615286	      3.68258166	      0.01088037	      0.40729424	     -1.11780904	    135.95760332	    -47.46295149	     26.32717632	    113.24297619	     -9.92454199	      9.89127992	      1.97646279	     20.80473351	     11.12907853	      0.00000000	    131.00155650	    -44.19444602	     17.38901331	    106.82879916	     -9.92393479	     -9.91175291	      1.86451428	     14.98170655	     28.73788319	      0.00000000
      4.45000000	      5.82699792	    -28.97571601	      3.84808255	      0.01091157	      0.40726803	     -1.11793599	    136.13177984	    -47.28474887	     26.53471119	    113.26474977	     -9.92446654	      9.89090453	      1.97684281	     20.75583528	     11.00442833	      0.00000000	    130.89705067	    -44.26830058	     17.18751944	    106.84055331	     -9.92392598	     -9.91156570	      1.86471943	     14.99889739	     28.67907736	      0.00000000
